<svg width="26" height="31" viewBox="0 0 26 31" fill="none" xmlns="http://www.w3.org/2000/svg">
<path d="M17.2426 11.7426C18.3679 10.6174 19 9.0913 19 7.5C19 5.9087 18.3679 4.38258 17.2426 3.25736C16.1174 2.13214 14.5913 1.5 13 1.5C11.4087 1.5 9.88258 2.13214 8.75736 3.25736C7.63214 4.38258 7 5.9087 7 7.5C7 9.0913 7.63214 10.6174 8.75736 11.7426C9.88258 12.8679 11.4087 13.5 13 13.5C14.5913 13.5 16.1174 12.8679 17.2426 11.7426Z" stroke="#6C7076" stroke-width="2" stroke-linecap="round" stroke-linejoin="round"/>
<path d="M4.45 21.45C6.41913 19.4809 10.2152 18 13 18C15.7848 18 19.5809 19.4809 21.55 21.45C23.5191 23.4191 25 25.95 25 28.5C25 28.5 20.5 30 13 30C5.5 30 1 28.5 1 28.5C1 25.95 2.48087 23.4191 4.45 21.45Z" stroke="#6C7076" stroke-width="2" stroke-linecap="round" stroke-linejoin="round"/>
</svg>
